<?xml version="1.0" encoding="utf-8"?>
<!-- Generator: Adobe Illustrator 16.0.0, SVG Export Plug-In . SVG Version: 6.00 Build 0)  -->
<!DOCTYPE svg PUBLIC "-//W3C//DTD SVG 1.1//EN" "http://www.w3.org/Graphics/SVG/1.1/DTD/svg11.dtd">
<svg version="1.1" id="Layer_1" xmlns="http://www.w3.org/2000/svg" xmlns:xlink="http://www.w3.org/1999/xlink" x="0px" y="0px"
	 width="357.941px" height="100.174px" viewBox="0 0 357.941 100.174" enable-background="new 0 0 357.941 100.174"
	 xml:space="preserve">
<path fill="#F7901E" d="M89.414,94.536c0,3.114-2.524,5.638-5.639,5.638H5.638C2.524,100.174,0,97.65,0,94.536V42.155
	c0-3.114,2.524-5.638,5.638-5.638h78.137c3.114,0,5.639,2.524,5.639,5.638V94.536z"/>
<g>
	<path fill="#FFFFFF" d="M80.414,96.674H9c-3.033,0-5.5-2.467-5.5-5.5V45.517c0-3.033,2.467-5.5,5.5-5.5h71.414
		c3.033,0,5.5,2.467,5.5,5.5v45.657C85.914,94.207,83.446,96.674,80.414,96.674z M9,41.017c-2.481,0-4.5,2.019-4.5,4.5v45.657
		c0,2.481,2.019,4.5,4.5,4.5h71.414c2.481,0,4.5-2.019,4.5-4.5V45.517c0-2.481-2.019-4.5-4.5-4.5H9z"/>
</g>
<g>
	<path fill="#FFFFFF" d="M62.75,74.852c-1.58,0-2.859-1.281-2.859-2.861v-7.289c0-1.58,1.279-2.861,2.859-2.861h26.663v-1H61.891
		c-1.657,0-3,1.343-3,3v9.012c0,1.656,1.343,3,3,3h27.522v-1H62.75z"/>
	<path fill="#8C6E64" d="M59.891,64.701v7.289c0,1.58,1.279,2.861,2.859,2.861h26.663V61.84H62.75
		C61.17,61.84,59.891,63.121,59.891,64.701z"/>
</g>
<circle fill="#FFFFFF" cx="65.841" cy="68.346" r="2.517"/>
<g>
	<g>
		<path fill="#8C6E64" d="M13.089,34.084L47.863,9.326L34.927,0.419c-1.082-0.745-2.563-0.472-3.308,0.61L7.875,35.517h4.278
			C12.274,34.959,12.587,34.441,13.089,34.084z"/>
		<path fill="#A58177" d="M83.098,28.978L63.972,2.115c-0.762-1.07-2.247-1.32-3.316-0.558L49.744,9.326L14.971,34.084
			c-0.501,0.357-0.815,0.875-0.936,1.433h41.532h22.446l4.527-3.223C83.609,31.532,83.858,30.048,83.098,28.978z"/>
	</g>
	<g>
		
			<rect x="41.054" y="13.554" transform="matrix(0.8196 -0.5729 0.5729 0.8196 1.0197 33.1835)" fill="#FFFFFF" width="24.304" height="2.837"/>
		
			<rect x="44.817" y="19.005" transform="matrix(0.8196 -0.5729 0.5729 0.8196 -1.4244 36.3232)" fill="#FFFFFF" width="24.304" height="2.837"/>
	</g>
</g>
<g>
	<path fill="#8C6E64" d="M129.455,75.871l-7.458-29.645v32.119c0,1.777-0.396,3.111-1.19,4c-0.793,0.889-1.846,1.332-3.158,1.332
		c-1.27,0-2.306-0.438-3.11-1.316c-0.804-0.878-1.206-2.217-1.206-4.016V41.53c0-2.031,0.529-3.401,1.587-4.11
		c1.059-0.709,2.486-1.063,4.285-1.063h2.92c1.756,0,3.031,0.159,3.824,0.476c0.794,0.317,1.381,0.889,1.762,1.714
		s0.814,2.169,1.301,4.031l6.761,25.485l6.76-25.485c0.486-1.862,0.921-3.206,1.302-4.031s0.968-1.396,1.761-1.714
		c0.794-0.317,2.068-0.476,3.825-0.476h2.92c1.798,0,3.226,0.354,4.284,1.063c1.058,0.709,1.587,2.079,1.587,4.11v36.816
		c0,1.777-0.396,3.111-1.19,4c-0.793,0.889-1.856,1.332-3.189,1.332c-1.249,0-2.274-0.443-3.078-1.332
		c-0.805-0.889-1.206-2.223-1.206-4V46.227l-7.459,29.645c-0.487,1.925-0.884,3.338-1.19,4.236c-0.307,0.899-0.872,1.72-1.697,2.46
		s-1.968,1.11-3.428,1.11c-1.101,0-2.031-0.237-2.793-0.714c-0.762-0.476-1.354-1.084-1.777-1.825c-0.424-0.74-0.757-1.56-1-2.459
		S129.709,76.844,129.455,75.871z"/>
	<path fill="#8C6E64" d="M174.635,84.758l0.794-1.937l-10.664-26.851c-0.656-1.544-0.984-2.666-0.984-3.364
		c0-0.74,0.19-1.429,0.571-2.063s0.905-1.143,1.571-1.523c0.667-0.381,1.359-0.57,2.079-0.57c1.248,0,2.189,0.396,2.824,1.189
		c0.635,0.794,1.195,1.932,1.683,3.412l7.331,21.328l6.951-19.836c0.55-1.608,1.047-2.867,1.491-3.777
		c0.444-0.909,0.915-1.523,1.412-1.841s1.201-0.476,2.111-0.476c0.655,0,1.285,0.174,1.888,0.523
		c0.604,0.349,1.068,0.82,1.396,1.412c0.328,0.593,0.492,1.217,0.492,1.873c-0.085,0.401-0.222,0.973-0.412,1.713
		c-0.19,0.741-0.424,1.492-0.698,2.254l-11.299,29.58c-0.974,2.603-1.926,4.645-2.856,6.125c-0.932,1.481-2.164,2.619-3.697,3.412
		c-1.535,0.794-3.603,1.19-6.205,1.19c-2.539,0-4.443-0.275-5.713-0.825c-1.27-0.551-1.904-1.555-1.904-3.016
		c0-0.994,0.302-1.761,0.904-2.301c0.604-0.539,1.497-0.809,2.682-0.809c0.466,0,0.921,0.063,1.365,0.189
		c0.55,0.127,1.026,0.191,1.428,0.191c0.995,0,1.777-0.148,2.349-0.445c0.571-0.296,1.084-0.809,1.54-1.539
		C173.519,87.249,174.043,86.175,174.635,84.758z"/>
	<path fill="#F7901E" d="M211.054,41.276v33.865h19.107c1.523,0,2.691,0.37,3.506,1.111c0.814,0.74,1.223,1.671,1.223,2.793
		c0,1.143-0.402,2.068-1.205,2.776c-0.805,0.709-1.98,1.063-3.523,1.063h-22.756c-2.053,0-3.529-0.455-4.428-1.365
		c-0.9-0.909-1.35-2.38-1.35-4.411V41.276c0-1.904,0.43-3.333,1.285-4.285c0.857-0.952,1.984-1.428,3.381-1.428
		c1.418,0,2.564,0.471,3.443,1.413C210.615,37.917,211.054,39.351,211.054,41.276z"/>
	<path fill="#F7901E" d="M272.261,66.063c0,2.582-0.402,4.962-1.205,7.142c-0.805,2.179-1.969,4.052-3.492,5.617
		c-1.523,1.566-3.342,2.767-5.459,3.603c-2.115,0.835-4.496,1.253-7.141,1.253c-2.623,0-4.982-0.423-7.078-1.27
		c-2.094-0.846-3.908-2.057-5.441-3.634c-1.535-1.576-2.699-3.438-3.492-5.586c-0.793-2.147-1.189-4.522-1.189-7.125
		c0-2.623,0.4-5.025,1.205-7.204c0.805-2.18,1.957-4.042,3.459-5.586c1.504-1.545,3.322-2.735,5.459-3.571
		c2.139-0.835,4.496-1.253,7.078-1.253c2.623,0,5.004,0.423,7.141,1.27c2.137,0.846,3.969,2.052,5.492,3.617
		c1.523,1.566,2.682,3.428,3.475,5.586S272.261,63.461,272.261,66.063z M263.566,66.063c0-3.533-0.777-6.284-2.334-8.252
		c-1.555-1.968-3.645-2.952-6.268-2.952c-1.693,0-3.184,0.439-4.475,1.317c-1.291,0.879-2.285,2.175-2.984,3.888
		c-0.697,1.715-1.047,3.714-1.047,5.999c0,2.265,0.344,4.242,1.031,5.935c0.688,1.693,1.672,2.989,2.953,3.889
		c1.279,0.899,2.787,1.349,4.521,1.349c2.623,0,4.713-0.989,6.268-2.968C262.789,72.29,263.566,69.555,263.566,66.063z"/>
	<path fill="#F7901E" d="M285.576,84.758l0.795-1.937l-10.664-26.851c-0.656-1.544-0.984-2.666-0.984-3.364
		c0-0.74,0.189-1.429,0.57-2.063s0.906-1.143,1.572-1.523s1.359-0.57,2.078-0.57c1.248,0,2.189,0.396,2.824,1.189
		c0.635,0.794,1.195,1.932,1.684,3.412l7.33,21.328l6.951-19.836c0.551-1.608,1.047-2.867,1.492-3.777
		c0.443-0.909,0.914-1.523,1.412-1.841c0.496-0.317,1.201-0.476,2.111-0.476c0.654,0,1.285,0.174,1.887,0.523
		c0.604,0.349,1.068,0.82,1.396,1.412c0.328,0.593,0.492,1.217,0.492,1.873c-0.084,0.401-0.221,0.973-0.412,1.713
		c-0.189,0.741-0.424,1.492-0.697,2.254l-11.299,29.58c-0.975,2.603-1.926,4.645-2.857,6.125c-0.932,1.481-2.164,2.619-3.697,3.412
		c-1.535,0.794-3.602,1.19-6.205,1.19c-2.539,0-4.443-0.275-5.713-0.825c-1.27-0.551-1.904-1.555-1.904-3.016
		c0-0.994,0.303-1.761,0.904-2.301c0.604-0.539,1.498-0.809,2.682-0.809c0.467,0,0.922,0.063,1.365,0.189
		c0.551,0.127,1.027,0.191,1.428,0.191c0.996,0,1.777-0.148,2.35-0.445c0.57-0.296,1.084-0.809,1.539-1.539
		C284.46,87.249,284.984,86.175,285.576,84.758z"/>
	<path fill="#F7901E" d="M333.201,78.791c-2.096,1.629-4.121,2.851-6.078,3.665s-4.152,1.222-6.586,1.222
		c-2.221,0-4.174-0.438-5.855-1.316s-2.979-2.068-3.889-3.57c-0.908-1.503-1.363-3.132-1.363-4.889c0-2.369,0.75-4.39,2.252-6.062
		c1.504-1.671,3.566-2.793,6.189-3.364c0.551-0.127,1.916-0.412,4.094-0.857c2.18-0.443,4.047-0.851,5.604-1.222
		c1.555-0.37,3.242-0.819,5.061-1.349c-0.105-2.285-0.566-3.962-1.381-5.03s-2.502-1.603-5.061-1.603
		c-2.201,0-3.857,0.307-4.967,0.92c-1.111,0.614-2.064,1.534-2.857,2.762c-0.793,1.227-1.354,2.036-1.682,2.428
		s-1.031,0.587-2.111,0.587c-0.973,0-1.814-0.312-2.523-0.937c-0.709-0.624-1.063-1.423-1.063-2.396
		c0-1.523,0.539-3.004,1.619-4.443c1.078-1.438,2.76-2.623,5.045-3.555c2.285-0.931,5.131-1.396,8.539-1.396
		c3.809,0,6.801,0.45,8.98,1.35s3.719,2.322,4.619,4.269c0.898,1.947,1.348,4.528,1.348,7.744c0,2.031-0.004,3.756-0.016,5.173
		c-0.01,1.418-0.027,2.995-0.047,4.729c0,1.63,0.27,3.327,0.809,5.094c0.539,1.768,0.811,2.904,0.811,3.412
		c0,0.889-0.418,1.698-1.254,2.428c-0.836,0.73-1.783,1.095-2.842,1.095c-0.889,0-1.766-0.418-2.633-1.253
		C335.093,81.589,334.173,80.377,333.201,78.791z M332.628,66.254c-1.27,0.466-3.115,0.958-5.537,1.476
		c-2.424,0.519-4.1,0.899-5.031,1.143c-0.932,0.244-1.82,0.72-2.666,1.429s-1.27,1.697-1.27,2.967c0,1.313,0.498,2.429,1.492,3.349
		c0.994,0.921,2.295,1.381,3.904,1.381c1.713,0,3.295-0.375,4.744-1.127c1.449-0.751,2.512-1.719,3.189-2.903
		c0.783-1.313,1.174-3.471,1.174-6.475V66.254z"/>
	<path fill="#F7901E" d="M349.275,78.41V40.832c0-1.735,0.387-3.047,1.16-3.936c0.771-0.889,1.813-1.333,3.125-1.333
		s2.369,0.439,3.174,1.317c0.805,0.878,1.207,2.196,1.207,3.952V78.41c0,1.756-0.408,3.073-1.223,3.951s-1.867,1.316-3.158,1.316
		c-1.27,0-2.301-0.455-3.094-1.364S349.275,80.103,349.275,78.41z"/>
</g>
</svg>
